<?xml version="1.0" encoding="utf-8"?>
<!-- Designed by Vexels.com - 2017 All Rights Reserved - https://vexels.com/terms-and-conditions/  -->

<svg version="1.1" id="Layer_1" xmlns="http://www.w3.org/2000/svg" xmlns:xlink="http://www.w3.org/1999/xlink" x="0px" y="0px"
	 width="1200px" height="1200px" viewBox="0 0 1200 1200" enable-background="new 0 0 1200 1200" xml:space="preserve">
<path fill="#372F35" d="M931.345,796.166c79.912-120.94,104.956-276.204,53.564-423.599
	C897.545,121.906,623.321-10.55,372.509,76.986c-250.617,87.448-383.029,361.57-295.515,612.4
	c87.363,250.661,361.57,383.073,612.315,295.492c38.684-13.465,74.133-31.797,106.82-53.435L1014.775,1150l135.211-135.233
	L931.345,796.166z M642.957,852.292c-177.524,61.949-371.538-31.797-433.483-209.215c-61.776-177.462,31.971-371.516,209.322-433.55
	c177.524-61.86,371.601,32.015,433.487,209.388C914.249,596.378,820.57,790.432,642.957,852.292z"/>
</svg>
